<svg width="683" height="683" viewBox="0 0 683 683" fill="none" xmlns="http://www.w3.org/2000/svg">
<path d="M440.949 376.691C479.264 376.691 534.7 368.789 534.7 323.215C534.815 319.698 534.496 316.18 533.751 312.741L510.933 213.629C505.665 191.822 501.04 181.929 462.756 162.787C433.047 147.595 368.33 122.511 349.188 122.511C331.362 122.511 326.186 145.482 304.931 145.482C284.471 145.482 269.28 128.331 250.137 128.331C231.761 128.331 219.785 140.857 210.536 166.615C210.536 166.615 184.778 239.264 181.47 249.8C180.944 251.735 180.717 253.739 180.796 255.742C180.796 283.981 291.975 376.569 440.949 376.569M540.581 341.714C545.879 366.799 545.879 369.433 545.879 372.74C545.879 415.619 497.671 439.417 434.302 439.417C291.087 439.509 165.635 355.589 165.635 300.122C165.627 292.401 167.201 284.761 170.26 277.672C118.744 280.244 52.0674 289.433 52.0674 348.299C52.0674 444.716 280.52 563.552 461.408 563.552C600.091 563.552 635.068 500.826 635.068 451.301C635.068 412.342 601.377 368.116 540.642 341.714" fill="#EE0000"/>
</svg>
