<svg width="1021" height="206" viewBox="0 0 1021 206" fill="none" xmlns="http://www.w3.org/2000/svg">
<path d="M104.026 67.9858C114.273 67.9858 129.099 65.8725 129.099 53.6842C129.13 52.7435 129.045 51.8027 128.845 50.8828L122.743 24.3766C121.334 18.5445 120.097 15.8988 109.858 10.7794C101.889 6.70847 84.5808 0 79.4532 0C74.686 0 73.269 6.17606 67.6172 6.17606C62.1455 6.17606 58.0828 1.58906 52.9634 1.58906C48.0487 1.58906 44.846 4.93921 42.3723 11.8279C42.3723 11.8279 35.4837 31.2571 34.599 34.0748C34.4529 34.5914 34.3866 35.1272 34.4024 35.6639C34.4024 43.216 64.1605 67.9858 104.026 67.9858ZM130.688 58.6316C132.105 65.34 132.105 66.0445 132.105 66.9291C132.105 78.3966 119.213 84.761 102.265 84.761C63.8902 84.7529 30.3724 62.3339 30.3724 47.5081C30.3702 45.4433 30.7912 43.3999 31.6093 41.5041C17.8319 42.2003 0 44.674 0 60.3845C0 86.1699 61.0971 117.951 109.473 117.951C146.563 117.951 155.917 101.176 155.917 87.931C155.917 77.512 146.907 65.6841 130.664 58.6234" fill="#EE0000"/>
<path d="M474.759 75.6036C474.759 85.3428 480.615 90.0772 491.296 90.0772C494.585 89.9953 497.853 89.5336 501.035 88.7011V77.4139C499.001 78.0585 496.878 78.3791 494.745 78.364C490.346 78.364 488.716 76.9879 488.716 72.8514V55.5355H501.461V43.9042H488.716V29.1603L474.791 32.1746V43.9042H465.552V55.5355H474.767L474.759 75.6036ZM431.346 75.8657C431.346 72.8514 434.368 71.3852 438.931 71.3852C441.72 71.4014 444.497 71.7479 447.204 72.4173V78.2739C444.543 79.727 441.553 80.469 438.521 80.4282C434.049 80.4282 431.371 78.708 431.371 75.8657H431.346ZM435.63 90.2492C440.544 90.2492 444.509 89.2172 448.211 86.7189V89.4793H461.989V60.27C461.989 49.1629 454.502 43.0688 442.011 43.0688C435.032 43.0688 428.135 44.707 420.714 48.0653L425.71 58.3205C431.051 56.0761 435.54 54.7001 439.496 54.7001C445.23 54.7001 448.195 56.9362 448.195 61.5068V63.743C444.819 62.8691 441.345 62.4342 437.858 62.4488C426.136 62.4488 419.076 67.3634 419.076 76.1524C419.076 84.1633 425.448 90.2738 435.613 90.2738L435.63 90.2492ZM359.895 89.5038H374.713V65.8727H399.524V89.4793H414.341V29.1767H399.556V52.3492H374.746V29.1767H359.928L359.895 89.5038ZM303.467 66.6508C303.467 60.098 308.636 55.1014 315.443 55.1014C318.989 55.0255 322.435 56.2889 325.092 58.6399V74.5388C323.802 75.7492 322.285 76.6923 320.629 77.3137C318.973 77.9351 317.21 78.2225 315.443 78.1592C308.726 78.1592 303.467 73.1627 303.467 66.618V66.6508ZM325.264 89.4465H339.049V26.1624L325.124 29.1767V46.3206C321.58 44.311 317.568 43.2713 313.493 43.3063C300.232 43.3063 289.805 53.5533 289.805 66.6508C289.763 69.7232 290.334 72.7732 291.484 75.6226C292.634 78.472 294.34 81.0638 296.503 83.2468C298.665 85.4298 301.241 87.1603 304.079 88.3372C306.917 89.5142 309.962 90.114 313.034 90.1018C317.429 90.1227 321.714 88.7363 325.264 86.1455V89.4465ZM262.037 54.4707C266.427 54.4707 270.13 57.313 271.596 61.7034H252.584C253.96 57.141 257.409 54.4707 262.061 54.4707H262.037ZM238.52 66.7327C238.52 80.0022 249.373 90.3393 263.323 90.3393C270.99 90.3393 276.592 88.267 282.367 83.4425L273.144 75.2514C270.99 77.4958 267.803 78.6998 264.019 78.6998C261.639 78.7669 259.295 78.1117 257.295 76.8207C255.295 75.5297 253.733 73.6633 252.814 71.4671H285.291V68.0269C285.291 53.5533 275.56 43.1343 262.291 43.1343C259.171 43.0872 256.074 43.6643 253.181 44.8316C250.288 45.9989 247.658 47.7329 245.445 49.9316C243.231 52.1302 241.48 54.7492 240.294 57.6345C239.108 60.5198 238.51 63.6132 238.537 66.7327H238.52ZM214.488 41.8401C219.402 41.8401 222.155 44.9363 222.155 48.6469C222.155 52.3574 219.394 55.4536 214.488 55.4536H199.842V41.8401H214.488ZM185 89.4793H199.818V67.5109H211.097L222.474 89.4793H239.012L225.742 65.3566C229.115 63.9851 231.999 61.636 234.025 58.6114C236.052 55.5868 237.126 52.0252 237.111 48.3848C237.111 37.5316 228.585 29.1767 215.815 29.1767H185.025L185 89.4793Z" fill="white"/>
<path d="M185 187.531V124.159H231.715V132.488H194.506V151.5H218.95V159.557H194.506V179.202H232.077V187.531H185Z" fill="white"/>
<path d="M235.336 187.531L253.261 163.902L236.06 141.45H246.653L258.512 157.203L270.372 141.45H280.602L263.582 163.812L281.689 187.531H271.096L258.331 170.511L245.566 187.531H235.336Z" fill="white"/>
<path d="M287.266 206V141.45H296.228V145.887C300.091 142.446 304.799 140.726 310.351 140.726C314.697 140.726 318.62 141.782 322.12 143.895C325.681 146.007 328.488 148.844 330.54 152.405C332.592 155.966 333.618 159.979 333.618 164.446C333.618 168.912 332.562 172.956 330.449 176.577C328.397 180.138 325.591 182.975 322.03 185.087C318.529 187.199 314.576 188.256 310.17 188.256C307.635 188.256 305.191 187.863 302.837 187.079C300.483 186.234 298.31 185.057 296.319 183.548V206H287.266ZM309.174 180.379C312.132 180.379 314.757 179.685 317.051 178.297C319.405 176.909 321.276 175.038 322.664 172.684C324.052 170.27 324.746 167.554 324.746 164.536C324.746 161.518 324.052 158.802 322.664 156.388C321.276 153.974 319.405 152.073 317.051 150.685C314.757 149.297 312.132 148.602 309.174 148.602C306.579 148.602 304.165 149.085 301.932 150.051C299.699 151.017 297.828 152.375 296.319 154.125V174.947C297.828 176.637 299.699 177.965 301.932 178.931C304.225 179.897 306.639 180.379 309.174 180.379Z" fill="white"/>
<path d="M364.347 188.346C359.82 188.346 355.716 187.29 352.034 185.178C348.413 183.065 345.516 180.198 343.343 176.577C341.231 172.956 340.175 168.912 340.175 164.446C340.175 160.04 341.201 156.056 343.253 152.495C345.305 148.874 348.081 146.007 351.582 143.895C355.082 141.722 358.975 140.636 363.26 140.636C367.546 140.636 371.348 141.722 374.667 143.895C377.987 146.007 380.612 148.904 382.544 152.586C384.536 156.207 385.531 160.311 385.531 164.898V167.433H349.228C349.711 169.968 350.646 172.231 352.034 174.223C353.483 176.215 355.294 177.784 357.466 178.931C359.699 180.078 362.114 180.651 364.709 180.651C366.942 180.651 369.085 180.319 371.137 179.655C373.249 178.931 374.999 177.905 376.388 176.577L382.182 182.281C379.466 184.333 376.659 185.872 373.762 186.898C370.925 187.863 367.787 188.346 364.347 188.346ZM349.318 160.643H376.569C376.207 158.229 375.362 156.117 374.034 154.306C372.766 152.435 371.167 150.986 369.236 149.96C367.365 148.874 365.312 148.331 363.079 148.331C360.786 148.331 358.673 148.844 356.742 149.87C354.811 150.896 353.181 152.344 351.853 154.215C350.586 156.026 349.741 158.169 349.318 160.643Z" fill="white"/>
<path d="M394.154 187.531V141.45H403.207V147.335C404.656 145.162 406.436 143.472 408.548 142.265C410.721 140.998 413.166 140.364 415.882 140.364C417.753 140.424 419.292 140.696 420.499 141.179V149.327C419.654 148.965 418.779 148.723 417.873 148.602C416.968 148.421 416.063 148.331 415.157 148.331C412.502 148.331 410.148 149.055 408.096 150.504C406.044 151.892 404.414 153.944 403.207 156.66V187.531H394.154Z" fill="white"/>
<path d="M427.75 187.531V141.45H436.803V187.531H427.75ZM432.276 134.027C430.768 134.027 429.47 133.484 428.384 132.397C427.297 131.25 426.754 129.923 426.754 128.414C426.754 126.845 427.297 125.547 428.384 124.521C429.47 123.434 430.768 122.891 432.276 122.891C433.846 122.891 435.174 123.434 436.26 124.521C437.346 125.547 437.889 126.845 437.889 128.414C437.889 129.923 437.346 131.25 436.26 132.397C435.174 133.484 433.846 134.027 432.276 134.027Z" fill="white"/>
<path d="M469.555 188.346C465.029 188.346 460.925 187.29 457.243 185.178C453.622 183.065 450.725 180.198 448.552 176.577C446.439 172.956 445.383 168.912 445.383 164.446C445.383 160.04 446.409 156.056 448.461 152.495C450.513 148.874 453.29 146.007 456.79 143.895C460.291 141.722 464.184 140.636 468.469 140.636C472.754 140.636 476.556 141.722 479.876 143.895C483.196 146.007 485.821 148.904 487.752 152.586C489.744 156.207 490.74 160.311 490.74 164.898V167.433H454.436C454.919 169.968 455.855 172.231 457.243 174.223C458.691 176.215 460.502 177.784 462.675 178.931C464.908 180.078 467.322 180.651 469.917 180.651C472.151 180.651 474.293 180.319 476.345 179.655C478.458 178.931 480.208 177.905 481.596 176.577L487.39 182.281C484.674 184.333 481.868 185.872 478.971 186.898C476.134 187.863 472.996 188.346 469.555 188.346ZM454.527 160.643H481.777C481.415 158.229 480.57 156.117 479.242 154.306C477.975 152.435 476.375 150.986 474.444 149.96C472.573 148.874 470.521 148.331 468.288 148.331C465.994 148.331 463.882 148.844 461.951 149.87C460.019 150.896 458.39 152.344 457.062 154.215C455.794 156.026 454.949 158.169 454.527 160.643Z" fill="white"/>
<path d="M499.362 187.531V141.45H508.416V146.158C511.977 142.416 516.594 140.545 522.267 140.545C525.828 140.545 528.936 141.3 531.592 142.808C534.308 144.317 536.42 146.43 537.929 149.146C539.498 151.862 540.283 155 540.283 158.561V187.531H531.23V160.1C531.23 156.479 530.204 153.642 528.152 151.59C526.16 149.478 523.353 148.421 519.732 148.421C517.318 148.421 515.145 148.934 513.214 149.96C511.282 150.986 509.683 152.465 508.416 154.397V187.531H499.362Z" fill="white"/>
<path d="M572.366 188.346C567.96 188.346 563.947 187.29 560.325 185.178C556.704 183.065 553.837 180.198 551.725 176.577C549.673 172.956 548.647 168.912 548.647 164.446C548.647 159.979 549.703 155.966 551.815 152.405C553.928 148.784 556.764 145.917 560.325 143.804C563.947 141.631 567.96 140.545 572.366 140.545C575.867 140.545 579.216 141.209 582.415 142.537C585.674 143.865 588.481 145.736 590.835 148.15L585.222 154.397C583.471 152.465 581.51 151.017 579.337 150.051C577.164 149.085 574.901 148.602 572.547 148.602C569.771 148.602 567.236 149.297 564.942 150.685C562.709 152.073 560.929 153.974 559.601 156.388C558.273 158.802 557.609 161.488 557.609 164.446C557.609 167.403 558.273 170.089 559.601 172.503C560.929 174.917 562.74 176.849 565.033 178.297C567.327 179.685 569.892 180.379 572.728 180.379C575.082 180.379 577.285 179.927 579.337 179.021C581.389 178.056 583.321 176.668 585.131 174.857L590.654 180.651C588.24 183.125 585.433 185.027 582.234 186.354C579.096 187.682 575.806 188.346 572.366 188.346Z" fill="white"/>
<path d="M618.704 188.346C614.177 188.346 610.073 187.29 606.391 185.178C602.77 183.065 599.873 180.198 597.7 176.577C595.588 172.956 594.532 168.912 594.532 164.446C594.532 160.04 595.558 156.056 597.61 152.495C599.662 148.874 602.438 146.007 605.939 143.895C609.439 141.722 613.332 140.636 617.617 140.636C621.903 140.636 625.705 141.722 629.025 143.895C632.344 146.007 634.97 148.904 636.901 152.586C638.893 156.207 639.888 160.311 639.888 164.898V167.433H603.585C604.068 169.968 605.003 172.231 606.391 174.223C607.84 176.215 609.651 177.784 611.823 178.931C614.057 180.078 616.471 180.651 619.066 180.651C621.299 180.651 623.442 180.319 625.494 179.655C627.606 178.931 629.357 177.905 630.745 176.577L636.539 182.281C633.823 184.333 631.016 185.872 628.119 186.898C625.283 187.863 622.144 188.346 618.704 188.346ZM603.676 160.643H630.926C630.564 158.229 629.719 156.117 628.391 154.306C627.123 152.435 625.524 150.986 623.593 149.96C621.722 148.874 619.67 148.331 617.436 148.331C615.143 148.331 613.031 148.844 611.099 149.87C609.168 150.896 607.538 152.344 606.21 154.215C604.943 156.026 604.098 158.169 603.676 160.643Z" fill="white"/>
<path d="M668.517 187.531V124.159H697.85C702.014 124.159 705.635 124.974 708.714 126.603C711.792 128.172 714.206 130.375 715.956 133.212C717.706 136.049 718.582 139.338 718.582 143.08C718.582 146.822 717.706 150.111 715.956 152.948C714.206 155.785 711.762 158.018 708.623 159.647C705.545 161.217 701.954 162.001 697.85 162.001H678.023V187.531H668.517ZM678.023 153.944H696.854C700.596 153.944 703.553 152.978 705.726 151.047C707.959 149.055 709.076 146.43 709.076 143.171C709.076 139.911 707.959 137.316 705.726 135.385C703.553 133.453 700.596 132.488 696.854 132.488H678.023V153.944Z" fill="white"/>
<path d="M727.285 187.531V124.159L736.338 122.439V187.531H727.285Z" fill="white"/>
<path d="M761.576 188.346C758.256 188.346 755.329 187.773 752.794 186.626C750.259 185.419 748.268 183.759 746.819 181.647C745.371 179.534 744.646 177.09 744.646 174.314C744.646 169.968 746.306 166.558 749.626 164.084C752.945 161.549 757.502 160.281 763.296 160.281C767.823 160.281 772.017 161.156 775.88 162.907V158.018C775.88 154.698 774.914 152.224 772.983 150.594C771.112 148.965 768.336 148.15 764.654 148.15C762.542 148.15 760.339 148.482 758.045 149.146C755.752 149.749 753.187 150.715 750.35 152.043L747 145.253C750.501 143.623 753.76 142.446 756.778 141.722C759.796 140.937 762.844 140.545 765.922 140.545C771.897 140.545 776.514 141.963 779.773 144.8C783.093 147.637 784.752 151.681 784.752 156.931V187.531H775.88V183.548C773.828 185.178 771.625 186.385 769.271 187.169C766.917 187.954 764.352 188.346 761.576 188.346ZM753.338 174.133C753.338 176.366 754.273 178.176 756.144 179.565C758.075 180.953 760.58 181.647 763.658 181.647C766.072 181.647 768.275 181.285 770.267 180.56C772.319 179.836 774.19 178.72 775.88 177.211V169.425C774.13 168.399 772.289 167.675 770.358 167.252C768.487 166.769 766.374 166.528 764.02 166.528C760.701 166.528 758.075 167.222 756.144 168.61C754.273 169.938 753.338 171.779 753.338 174.133Z" fill="white"/>
<path d="M813.594 188.346C809.128 188.346 805.718 187.32 803.364 185.268C801.01 183.156 799.833 180.108 799.833 176.124V149.055H790.056V141.45H799.833V129.681L808.796 127.508V141.45H822.376V149.055H808.796V174.042C808.796 176.396 809.309 178.086 810.335 179.112C811.421 180.078 813.171 180.56 815.586 180.56C816.853 180.56 817.97 180.47 818.935 180.289C819.961 180.108 821.048 179.836 822.195 179.474V187.079C820.987 187.501 819.569 187.803 817.94 187.984C816.37 188.225 814.922 188.346 813.594 188.346Z" fill="white"/>
<path d="M836.81 187.531V149.055H826.127V141.45H836.81V134.479C836.81 129.651 838.138 125.969 840.793 123.434C843.509 120.9 847.372 119.632 852.381 119.632C853.649 119.632 854.826 119.723 855.912 119.904C857.059 120.024 858.085 120.236 858.99 120.537V128.323C857.904 128.021 856.938 127.81 856.093 127.689C855.248 127.508 854.313 127.418 853.287 127.418C850.752 127.418 848.851 128.021 847.583 129.229C846.376 130.375 845.773 132.216 845.773 134.751V141.45H858.99V149.055H845.773V187.531H836.81Z" fill="white"/>
<path d="M885.699 188.437C881.233 188.437 877.159 187.381 873.478 185.268C869.856 183.156 866.989 180.289 864.877 176.668C862.765 173.046 861.708 169.002 861.708 164.536C861.708 160.07 862.765 156.026 864.877 152.405C866.989 148.784 869.856 145.917 873.478 143.804C877.159 141.631 881.233 140.545 885.699 140.545C890.226 140.545 894.3 141.631 897.921 143.804C901.543 145.917 904.409 148.784 906.522 152.405C908.634 156.026 909.691 160.07 909.691 164.536C909.691 169.002 908.634 173.046 906.522 176.668C904.409 180.289 901.543 183.156 897.921 185.268C894.3 187.381 890.226 188.437 885.699 188.437ZM885.699 180.47C888.536 180.47 891.101 179.776 893.395 178.388C895.688 176.939 897.499 175.008 898.827 172.594C900.154 170.179 900.818 167.463 900.818 164.446C900.818 161.488 900.124 158.833 898.736 156.479C897.408 154.065 895.598 152.133 893.304 150.685C891.071 149.236 888.536 148.512 885.699 148.512C882.863 148.512 880.298 149.236 878.004 150.685C875.771 152.133 873.96 154.065 872.572 156.479C871.244 158.833 870.581 161.488 870.581 164.446C870.581 167.463 871.244 170.179 872.572 172.594C873.9 175.008 875.711 176.939 878.004 178.388C880.298 179.776 882.863 180.47 885.699 180.47Z" fill="white"/>
<path d="M918.252 187.531V141.45H927.305V147.335C928.753 145.162 930.534 143.472 932.646 142.265C934.819 140.998 937.263 140.364 939.979 140.364C941.85 140.424 943.389 140.696 944.596 141.179V149.327C943.751 148.965 942.876 148.723 941.971 148.602C941.066 148.421 940.16 148.331 939.255 148.331C936.599 148.331 934.246 149.055 932.193 150.504C930.141 151.892 928.512 153.944 927.305 156.66V187.531H918.252Z" fill="white"/>
<path d="M951.848 187.531V141.45H960.901V145.887C964.341 142.326 968.656 140.545 973.847 140.545C976.985 140.545 979.762 141.239 982.176 142.627C984.65 144.016 986.612 145.887 988.06 148.24C989.992 145.705 992.255 143.804 994.85 142.537C997.446 141.209 1000.37 140.545 1003.63 140.545C1007.07 140.545 1010.06 141.3 1012.59 142.808C1015.19 144.317 1017.21 146.43 1018.66 149.146C1020.17 151.862 1020.92 155 1020.92 158.561V187.531H1011.87V160.1C1011.87 156.479 1010.9 153.642 1008.97 151.59C1007.1 149.478 1004.54 148.421 1001.28 148.421C999.045 148.421 997.023 148.934 995.213 149.96C993.402 150.986 991.833 152.556 990.505 154.668C990.626 155.272 990.716 155.905 990.776 156.569C990.837 157.233 990.867 157.897 990.867 158.561V187.531H981.904V160.1C981.904 156.479 980.939 153.642 979.007 151.59C977.136 149.478 974.571 148.421 971.312 148.421C969.139 148.421 967.178 148.904 965.427 149.87C963.677 150.775 962.168 152.163 960.901 154.034V187.531H951.848Z" fill="white"/>
</svg>
