<svg width="1022" height="208" viewBox="0 0 1022 208" fill="none" xmlns="http://www.w3.org/2000/svg">
<path d="M185.726 188.624V125.251H232.441V133.58H195.232V152.592H219.676V160.649H195.232V180.295H232.803V188.624H185.726Z" fill="black"/>
<path d="M236.062 188.624L253.987 164.995L236.786 142.543H247.379L259.238 158.296L271.098 142.543H281.328L264.308 164.904L282.415 188.624H271.822L259.057 171.604L246.292 188.624H236.062Z" fill="black"/>
<path d="M287.991 207.093V142.543H296.954V146.979C300.817 143.539 305.525 141.819 311.077 141.819C315.423 141.819 319.346 142.875 322.846 144.987C326.407 147.1 329.214 149.936 331.266 153.497C333.318 157.058 334.344 161.072 334.344 165.538C334.344 170.004 333.288 174.048 331.175 177.669C329.123 181.23 326.317 184.067 322.756 186.18C319.255 188.292 315.302 189.348 310.896 189.348C308.361 189.348 305.917 188.956 303.563 188.171C301.209 187.326 299.036 186.149 297.045 184.64V207.093H287.991ZM309.9 181.472C312.858 181.472 315.483 180.778 317.777 179.39C320.13 178.001 322.001 176.13 323.39 173.777C324.778 171.362 325.472 168.646 325.472 165.629C325.472 162.611 324.778 159.895 323.39 157.481C322.001 155.067 320.13 153.165 317.777 151.777C315.483 150.389 312.858 149.695 309.9 149.695C307.305 149.695 304.891 150.178 302.658 151.143C300.425 152.109 298.554 153.467 297.045 155.217V176.04C298.554 177.73 300.425 179.058 302.658 180.023C304.951 180.989 307.365 181.472 309.9 181.472Z" fill="black"/>
<path d="M365.073 189.439C360.546 189.439 356.442 188.382 352.76 186.27C349.139 184.158 346.242 181.291 344.069 177.669C341.957 174.048 340.901 170.004 340.901 165.538C340.901 161.132 341.927 157.149 343.979 153.588C346.031 149.967 348.807 147.1 352.308 144.987C355.808 142.815 359.701 141.728 363.986 141.728C368.272 141.728 372.074 142.815 375.393 144.987C378.713 147.1 381.338 149.997 383.27 153.678C385.261 157.3 386.257 161.404 386.257 165.991V168.526H349.954C350.437 171.061 351.372 173.324 352.76 175.316C354.209 177.307 356.019 178.877 358.192 180.023C360.425 181.17 362.84 181.743 365.435 181.743C367.668 181.743 369.811 181.411 371.863 180.748C373.975 180.023 375.725 178.997 377.114 177.669L382.908 183.373C380.192 185.425 377.385 186.964 374.488 187.99C371.651 188.956 368.513 189.439 365.073 189.439ZM350.044 161.736H377.295C376.932 159.322 376.088 157.209 374.76 155.399C373.492 153.528 371.893 152.079 369.961 151.053C368.09 149.967 366.038 149.423 363.805 149.423C361.512 149.423 359.399 149.936 357.468 150.962C355.537 151.988 353.907 153.437 352.579 155.308C351.312 157.119 350.467 159.261 350.044 161.736Z" fill="black"/>
<path d="M394.88 188.624V142.543H403.933V148.428C405.382 146.255 407.162 144.565 409.274 143.358C411.447 142.09 413.892 141.457 416.608 141.457C418.479 141.517 420.018 141.788 421.225 142.271V150.419C420.38 150.057 419.505 149.816 418.599 149.695C417.694 149.514 416.789 149.423 415.883 149.423C413.228 149.423 410.874 150.148 408.822 151.596C406.77 152.984 405.14 155.036 403.933 157.752V188.624H394.88Z" fill="black"/>
<path d="M428.476 188.624V142.543H437.529V188.624H428.476ZM433.002 135.119C431.494 135.119 430.196 134.576 429.11 133.49C428.023 132.343 427.48 131.015 427.48 129.506C427.48 127.937 428.023 126.639 429.11 125.613C430.196 124.527 431.494 123.984 433.002 123.984C434.572 123.984 435.899 124.527 436.986 125.613C438.072 126.639 438.615 127.937 438.615 129.506C438.615 131.015 438.072 132.343 436.986 133.49C435.899 134.576 434.572 135.119 433.002 135.119Z" fill="black"/>
<path d="M470.281 189.439C465.755 189.439 461.651 188.382 457.969 186.27C454.348 184.158 451.451 181.291 449.278 177.669C447.165 174.048 446.109 170.004 446.109 165.538C446.109 161.132 447.135 157.149 449.187 153.588C451.239 149.967 454.016 147.1 457.516 144.987C461.017 142.815 464.91 141.728 469.195 141.728C473.48 141.728 477.282 142.815 480.602 144.987C483.921 147.1 486.547 149.997 488.478 153.678C490.47 157.3 491.466 161.404 491.466 165.991V168.526H455.162C455.645 171.061 456.581 173.324 457.969 175.316C459.417 177.307 461.228 178.877 463.401 180.023C465.634 181.17 468.048 181.743 470.643 181.743C472.877 181.743 475.019 181.411 477.071 180.748C479.184 180.023 480.934 178.997 482.322 177.669L488.116 183.373C485.4 185.425 482.594 186.964 479.697 187.99C476.86 188.956 473.721 189.439 470.281 189.439ZM455.253 161.736H482.503C482.141 159.322 481.296 157.209 479.968 155.399C478.701 153.528 477.101 152.079 475.17 151.053C473.299 149.967 471.247 149.423 469.014 149.423C466.72 149.423 464.608 149.936 462.677 150.962C460.745 151.988 459.116 153.437 457.788 155.308C456.52 157.119 455.675 159.261 455.253 161.736Z" fill="black"/>
<path d="M500.088 188.624V142.543H509.142V147.251C512.703 143.509 517.32 141.638 522.993 141.638C526.554 141.638 529.662 142.392 532.318 143.901C535.034 145.41 537.146 147.522 538.655 150.238C540.224 152.954 541.009 156.093 541.009 159.654V188.624H531.956V161.193C531.956 157.571 530.93 154.735 528.878 152.683C526.886 150.57 524.079 149.514 520.458 149.514C518.044 149.514 515.871 150.027 513.94 151.053C512.008 152.079 510.409 153.558 509.142 155.489V188.624H500.088Z" fill="black"/>
<path d="M573.092 189.439C568.686 189.439 564.673 188.382 561.051 186.27C557.43 184.158 554.563 181.291 552.451 177.669C550.399 174.048 549.373 170.004 549.373 165.538C549.373 161.072 550.429 157.058 552.541 153.497C554.654 149.876 557.49 147.009 561.051 144.897C564.673 142.724 568.686 141.638 573.092 141.638C576.593 141.638 579.942 142.301 583.141 143.629C586.4 144.957 589.207 146.828 591.561 149.242L585.948 155.489C584.197 153.558 582.236 152.109 580.063 151.143C577.89 150.178 575.627 149.695 573.273 149.695C570.497 149.695 567.962 150.389 565.668 151.777C563.435 153.165 561.655 155.067 560.327 157.481C558.999 159.895 558.335 162.581 558.335 165.538C558.335 168.496 558.999 171.181 560.327 173.596C561.655 176.01 563.465 177.941 565.759 179.39C568.052 180.778 570.618 181.472 573.454 181.472C575.808 181.472 578.011 181.019 580.063 180.114C582.115 179.148 584.047 177.76 585.857 175.949L591.38 181.743C588.965 184.218 586.159 186.119 582.96 187.447C579.822 188.775 576.532 189.439 573.092 189.439Z" fill="black"/>
<path d="M619.43 189.439C614.903 189.439 610.799 188.382 607.117 186.27C603.496 184.158 600.599 181.291 598.426 177.669C596.314 174.048 595.258 170.004 595.258 165.538C595.258 161.132 596.284 157.149 598.336 153.588C600.388 149.967 603.164 147.1 606.665 144.987C610.165 142.815 614.058 141.728 618.343 141.728C622.629 141.728 626.431 142.815 629.751 144.987C633.07 147.1 635.695 149.997 637.627 153.678C639.619 157.3 640.614 161.404 640.614 165.991V168.526H604.311C604.794 171.061 605.729 173.324 607.117 175.316C608.566 177.307 610.377 178.877 612.549 180.023C614.783 181.17 617.197 181.743 619.792 181.743C622.025 181.743 624.168 181.411 626.22 180.748C628.332 180.023 630.082 178.997 631.471 177.669L637.265 183.373C634.549 185.425 631.742 186.964 628.845 187.99C626.009 188.956 622.87 189.439 619.43 189.439ZM604.401 161.736H631.652C631.29 159.322 630.445 157.209 629.117 155.399C627.849 153.528 626.25 152.079 624.319 151.053C622.448 149.967 620.396 149.423 618.162 149.423C615.869 149.423 613.756 149.936 611.825 150.962C609.894 151.988 608.264 153.437 606.936 155.308C605.669 157.119 604.824 159.261 604.401 161.736Z" fill="black"/>
<path d="M669.243 188.624V125.251H698.576C702.74 125.251 706.361 126.066 709.44 127.696C712.518 129.265 714.932 131.468 716.682 134.304C718.432 137.141 719.308 140.43 719.308 144.173C719.308 147.915 718.432 151.204 716.682 154.041C714.932 156.877 712.487 159.11 709.349 160.74C706.271 162.309 702.68 163.094 698.576 163.094H678.749V188.624H669.243ZM678.749 155.036H697.58C701.322 155.036 704.279 154.071 706.452 152.139C708.685 150.148 709.802 147.522 709.802 144.263C709.802 141.004 708.685 138.409 706.452 136.477C704.279 134.546 701.322 133.58 697.58 133.58H678.749V155.036Z" fill="black"/>
<path d="M728.011 188.624V125.251L737.064 123.531V188.624H728.011Z" fill="black"/>
<path d="M762.302 189.439C758.982 189.439 756.055 188.865 753.52 187.719C750.985 186.511 748.994 184.852 747.545 182.739C746.097 180.627 745.372 178.182 745.372 175.406C745.372 171.061 747.032 167.651 750.352 165.176C753.671 162.641 758.228 161.374 764.022 161.374C768.549 161.374 772.743 162.249 776.606 163.999V159.11C776.606 155.791 775.64 153.316 773.709 151.687C771.838 150.057 769.062 149.242 765.38 149.242C763.268 149.242 761.065 149.574 758.771 150.238C756.478 150.842 753.913 151.807 751.076 153.135L747.726 146.345C751.227 144.716 754.486 143.539 757.504 142.815C760.521 142.03 763.569 141.638 766.648 141.638C772.623 141.638 777.24 143.056 780.499 145.893C783.818 148.729 785.478 152.773 785.478 158.024V188.624H776.606V184.64C774.554 186.27 772.351 187.477 769.997 188.262C767.643 189.046 765.078 189.439 762.302 189.439ZM754.063 175.225C754.063 177.458 754.999 179.269 756.87 180.657C758.801 182.045 761.306 182.739 764.384 182.739C766.798 182.739 769.001 182.377 770.993 181.653C773.045 180.929 774.916 179.812 776.606 178.303V170.517C774.856 169.491 773.015 168.767 771.084 168.345C769.213 167.862 767.1 167.62 764.746 167.62C761.427 167.62 758.801 168.314 756.87 169.703C754.999 171.03 754.063 172.871 754.063 175.225Z" fill="black"/>
<path d="M814.32 189.439C809.854 189.439 806.444 188.413 804.09 186.361C801.736 184.248 800.559 181.2 800.559 177.217V150.148H790.781V142.543H800.559V130.774L809.522 128.601V142.543H823.102V150.148H809.522V175.135C809.522 177.488 810.035 179.178 811.061 180.204C812.147 181.17 813.897 181.653 816.312 181.653C817.579 181.653 818.696 181.562 819.661 181.381C820.687 181.2 821.774 180.929 822.92 180.567V188.171C821.713 188.594 820.295 188.896 818.665 189.077C817.096 189.318 815.648 189.439 814.32 189.439Z" fill="black"/>
<path d="M837.536 188.624V150.148H826.853V142.543H837.536V135.572C837.536 130.744 838.864 127.062 841.519 124.527C844.235 121.992 848.098 120.725 853.107 120.725C854.375 120.725 855.552 120.815 856.638 120.996C857.785 121.117 858.811 121.328 859.716 121.63V129.416C858.63 129.114 857.664 128.903 856.819 128.782C855.974 128.601 855.039 128.51 854.013 128.51C851.478 128.51 849.577 129.114 848.309 130.321C847.102 131.468 846.498 133.309 846.498 135.844V142.543H859.716V150.148H846.498V188.624H837.536Z" fill="black"/>
<path d="M886.425 189.529C881.959 189.529 877.885 188.473 874.204 186.361C870.582 184.248 867.715 181.381 865.603 177.76C863.491 174.139 862.434 170.095 862.434 165.629C862.434 161.162 863.491 157.119 865.603 153.497C867.715 149.876 870.582 147.009 874.204 144.897C877.885 142.724 881.959 141.638 886.425 141.638C890.952 141.638 895.026 142.724 898.647 144.897C902.269 147.009 905.135 149.876 907.248 153.497C909.36 157.119 910.417 161.162 910.417 165.629C910.417 170.095 909.36 174.139 907.248 177.76C905.135 181.381 902.269 184.248 898.647 186.361C895.026 188.473 890.952 189.529 886.425 189.529ZM886.425 181.562C889.262 181.562 891.827 180.868 894.121 179.48C896.414 178.032 898.225 176.1 899.553 173.686C900.88 171.272 901.544 168.556 901.544 165.538C901.544 162.581 900.85 159.925 899.462 157.571C898.134 155.157 896.324 153.226 894.03 151.777C891.797 150.329 889.262 149.604 886.425 149.604C883.589 149.604 881.024 150.329 878.73 151.777C876.497 153.226 874.686 155.157 873.298 157.571C871.97 159.925 871.307 162.581 871.307 165.538C871.307 168.556 871.97 171.272 873.298 173.686C874.626 176.1 876.437 178.032 878.73 179.48C881.024 180.868 883.589 181.562 886.425 181.562Z" fill="black"/>
<path d="M918.977 188.624V142.543H928.031V148.428C929.479 146.255 931.26 144.565 933.372 143.358C935.545 142.09 937.989 141.457 940.705 141.457C942.576 141.517 944.115 141.788 945.322 142.271V150.419C944.477 150.057 943.602 149.816 942.697 149.695C941.792 149.514 940.886 149.423 939.981 149.423C937.325 149.423 934.971 150.148 932.919 151.596C930.867 152.984 929.238 155.036 928.031 157.752V188.624H918.977Z" fill="black"/>
<path d="M952.573 188.624V142.543H961.627V146.979C965.067 143.418 969.382 141.638 974.573 141.638C977.711 141.638 980.488 142.332 982.902 143.72C985.376 145.108 987.338 146.979 988.786 149.333C990.718 146.798 992.981 144.897 995.576 143.629C998.172 142.301 1001.1 141.638 1004.36 141.638C1007.8 141.638 1010.79 142.392 1013.32 143.901C1015.92 145.41 1017.94 147.522 1019.39 150.238C1020.9 152.954 1021.65 156.093 1021.65 159.654V188.624H1012.6V161.193C1012.6 157.571 1011.63 154.735 1009.7 152.683C1007.83 150.57 1005.26 149.514 1002 149.514C999.771 149.514 997.749 150.027 995.938 151.053C994.128 152.079 992.559 153.648 991.231 155.761C991.352 156.364 991.442 156.998 991.502 157.662C991.563 158.326 991.593 158.99 991.593 159.654V188.624H982.63V161.193C982.63 157.571 981.664 154.735 979.733 152.683C977.862 150.57 975.297 149.514 972.038 149.514C969.865 149.514 967.904 149.997 966.153 150.962C964.403 151.868 962.894 153.256 961.627 155.127V188.624H952.573Z" fill="black"/>
<path d="M476.48 76.9261C476.48 86.7067 482.362 91.4613 493.089 91.4613C496.391 91.3791 499.673 90.9154 502.869 90.0794V78.744C500.826 79.3914 498.695 79.7134 496.552 79.6982C492.134 79.6982 490.497 78.3162 490.497 74.1621V56.7725H503.297V45.0916H490.497V30.2849L476.513 33.312V45.0916H467.234V56.7725H476.489L476.48 76.9261ZM432.883 77.1893C432.883 74.1621 435.918 72.6897 440.5 72.6897C443.301 72.706 446.089 73.0539 448.808 73.7262V79.6077C446.136 81.067 443.133 81.8122 440.089 81.7711C435.597 81.7711 432.907 80.0437 432.907 77.1893H432.883ZM437.185 91.6341C442.121 91.6341 446.102 90.5976 449.82 88.0887V90.8608H463.656V61.5271C463.656 50.3727 456.138 44.2526 443.593 44.2526C436.584 44.2526 429.658 45.8977 422.206 49.2704L427.223 59.5693C432.587 57.3154 437.094 55.9334 441.068 55.9334C446.826 55.9334 449.804 58.1791 449.804 62.7692V65.0149C446.413 64.1373 442.924 63.7005 439.422 63.7152C427.651 63.7152 420.56 68.6507 420.56 77.4772C420.56 85.5222 426.96 91.6587 437.169 91.6587L437.185 91.6341ZM361.128 90.8855H376.009V67.1536H400.925V90.8608H415.806V30.3013H400.958V53.5726H376.041V30.3013H361.161L361.128 90.8855ZM304.459 67.9351C304.459 61.3543 309.65 56.3365 316.486 56.3365C320.048 56.2602 323.507 57.5291 326.176 59.8901V75.8567C324.88 77.0723 323.357 78.0194 321.694 78.6434C320.031 79.2674 318.261 79.556 316.486 79.4925C309.74 79.4925 304.459 74.4747 304.459 67.9022V67.9351ZM326.348 90.8279H340.193V27.2742L326.209 30.3013V47.5183C322.649 45.5001 318.62 44.456 314.528 44.4911C301.21 44.4911 290.738 54.7818 290.738 67.9351C290.697 71.0206 291.27 74.0835 292.425 76.9451C293.58 79.8066 295.293 82.4095 297.465 84.6018C299.636 86.7941 302.223 88.532 305.073 89.7139C307.924 90.8959 310.981 91.4983 314.067 91.486C318.48 91.507 322.784 90.1147 326.348 87.5129V90.8279ZM262.852 55.7031C267.261 55.7031 270.98 58.5575 272.452 62.9666H253.36C254.741 58.3847 258.205 55.7031 262.877 55.7031H262.852ZM239.236 68.0173C239.236 81.3434 250.135 91.7246 264.144 91.7246C271.843 91.7246 277.47 89.6434 283.269 84.7983L274.007 76.5723C271.843 78.8263 268.643 80.0355 264.843 80.0355C262.453 80.1028 260.099 79.4449 258.09 78.1483C256.082 76.8518 254.513 74.9774 253.59 72.7719H286.206V69.317C286.206 54.7818 276.433 44.3184 263.107 44.3184C259.975 44.2711 256.864 44.8506 253.959 46.0229C251.054 47.1952 248.412 48.9366 246.189 51.1446C243.967 53.3526 242.208 55.9828 241.017 58.8804C239.825 61.778 239.225 64.8845 239.252 68.0173H239.236ZM215.101 43.0187C220.036 43.0187 222.8 46.1281 222.8 49.8544C222.8 53.5808 220.028 56.6902 215.101 56.6902H200.393V43.0187H215.101ZM185.487 90.8608H200.368V68.7988H211.695L223.121 90.8608H239.729L226.403 66.6354C229.79 65.258 232.687 62.8989 234.722 59.8614C236.756 56.824 237.836 53.2472 237.821 49.5912C237.821 38.6918 229.257 30.3013 216.433 30.3013H185.512L185.487 90.8608Z" fill="black"/>
<path d="M104.029 67.9872C114.276 67.9872 129.102 65.8738 129.102 53.6853C129.133 52.7446 129.047 51.8037 128.848 50.8839L122.746 24.3771C121.337 18.5449 120.1 15.8992 109.861 10.7797C101.891 6.70861 84.5826 0 79.4549 0C74.6876 0 73.2705 6.17618 67.6186 6.17618C62.1468 6.17618 58.084 1.5891 52.9645 1.5891C48.0497 1.5891 44.847 4.93931 42.3732 11.8281C42.3732 11.8281 35.4844 31.2577 34.5997 34.0755C34.4536 34.5921 34.3873 35.128 34.4031 35.6646C34.4031 43.2169 64.1619 67.9872 104.029 67.9872ZM130.691 58.6328C132.108 65.3414 132.108 66.0459 132.108 66.9305C132.108 78.3982 119.215 84.7628 102.267 84.7628C63.8916 84.7546 30.3731 62.3352 30.3731 47.5091C30.3709 45.4442 30.7918 43.4008 31.6099 41.5049C17.8323 42.2012 0 44.6749 0 60.3857C0 86.1717 61.0984 117.954 109.476 117.954C146.566 117.954 155.92 101.178 155.92 87.9328C155.92 77.5136 146.91 65.6854 130.666 58.6246" fill="#EE0000"/>
<path d="M130.666 58.6242C132.084 65.3328 132.083 66.0372 132.083 66.9219C132.083 78.3896 119.191 84.7542 102.243 84.7542C63.8915 84.7542 30.3731 62.3348 30.3731 47.5087C30.3708 45.4438 30.7918 43.4004 31.6099 41.5045L34.6079 34.0833C34.4598 34.5968 34.3908 35.1299 34.4031 35.6642C34.4031 43.2165 64.1619 67.9868 104.029 67.9868C114.276 67.9868 129.102 65.8734 129.102 53.6849C129.133 52.7442 129.047 51.8033 128.848 50.8835L130.666 58.6242Z" fill="black"/>
</svg>
