<svg width="187" height="64" viewBox="0 0 187 64" fill="none" xmlns="http://www.w3.org/2000/svg">
<path d="M79.875 24L86.5 14.975L80.175 6.5H85.225L89.025 11.825L92.8 6.5H97.65L91.425 14.975L98.175 24H93.15L88.925 18.1L84.725 24H79.875Z" fill="white"/>
<path d="M98.7602 24V6.5H112.51V10.15H102.96V13.4H109.26V16.95H102.96V20.35H112.61V24H98.7602Z" fill="white"/>
<path d="M90.2 57.275C88.9 57.275 87.6917 57.05 86.575 56.6C85.475 56.1333 84.5 55.4917 83.65 54.675C82.8167 53.8417 82.1667 52.8833 81.7 51.8C81.25 50.7 81.025 49.5167 81.025 48.25C81.025 46.9833 81.25 45.8083 81.7 44.725C82.1667 43.625 82.8167 42.6667 83.65 41.85C84.5 41.0167 85.4833 40.375 86.6 39.925C87.7167 39.4583 88.9167 39.225 90.2 39.225C91.1167 39.225 92.0083 39.35 92.875 39.6C93.7583 39.8333 94.5667 40.175 95.3 40.625C96.05 41.075 96.7 41.6167 97.25 42.25L95.5 44.05C94.85 43.2667 94.0583 42.675 93.125 42.275C92.1917 41.8583 91.2167 41.65 90.2 41.65C88.9667 41.65 87.8583 41.9417 86.875 42.525C85.8917 43.1083 85.1167 43.9 84.55 44.9C83.9833 45.8833 83.7 47 83.7 48.25C83.7 49.5 83.9833 50.625 84.55 51.625C85.1333 52.6083 85.925 53.3917 86.925 53.975C87.925 54.5583 89.0417 54.85 90.275 54.85C91.2917 54.85 92.25 54.65 93.15 54.25C94.0667 53.8333 94.8417 53.25 95.475 52.5L97.2 54.25C96.6167 54.8667 95.95 55.4083 95.2 55.875C94.4667 56.325 93.6667 56.675 92.8 56.925C91.95 57.1583 91.0833 57.275 90.2 57.275Z" fill="white"/>
<path d="M105.152 57.25C103.919 57.25 102.794 56.9583 101.777 56.375C100.777 55.7917 99.9853 55 99.402 54C98.8186 53 98.527 51.8833 98.527 50.65C98.527 49.4167 98.8186 48.3 99.402 47.3C99.9853 46.3 100.777 45.5083 101.777 44.925C102.794 44.325 103.919 44.025 105.152 44.025C106.402 44.025 107.527 44.325 108.527 44.925C109.527 45.5083 110.319 46.3 110.902 47.3C111.485 48.3 111.777 49.4167 111.777 50.65C111.777 51.8833 111.485 53 110.902 54C110.319 55 109.527 55.7917 108.527 56.375C107.527 56.9583 106.402 57.25 105.152 57.25ZM105.152 55.05C105.935 55.05 106.635 54.8583 107.252 54.475C107.885 54.075 108.385 53.5417 108.752 52.875C109.135 52.2083 109.327 51.4667 109.327 50.65C109.327 49.8167 109.144 49.075 108.777 48.425C108.41 47.7583 107.91 47.225 107.277 46.825C106.644 46.425 105.935 46.225 105.152 46.225C104.369 46.225 103.66 46.425 103.027 46.825C102.394 47.225 101.894 47.7583 101.527 48.425C101.16 49.075 100.977 49.8167 100.977 50.65C100.977 51.4667 101.16 52.2083 101.527 52.875C101.894 53.5417 102.394 54.075 103.027 54.475C103.66 54.8583 104.369 55.05 105.152 55.05Z" fill="white"/>
<path d="M114.141 57V44.275H116.641V45.5C117.591 44.5167 118.783 44.025 120.216 44.025C121.083 44.025 121.849 44.2167 122.516 44.6C123.199 44.9833 123.741 45.5 124.141 46.15C125.191 44.7333 126.624 44.025 128.441 44.025C129.391 44.025 130.216 44.2333 130.916 44.65C131.633 45.0667 132.191 45.65 132.591 46.4C133.008 47.15 133.216 48.0167 133.216 49V57H130.716V49.425C130.716 48.425 130.449 47.6417 129.916 47.075C129.399 46.4917 128.691 46.2 127.791 46.2C126.541 46.2 125.549 46.775 124.816 47.925C124.849 48.0917 124.874 48.2667 124.891 48.45C124.908 48.6333 124.916 48.8167 124.916 49V57H122.441V49.425C122.441 48.425 122.174 47.6417 121.641 47.075C121.124 46.4917 120.416 46.2 119.516 46.2C118.299 46.2 117.341 46.7167 116.641 47.75V57H114.141Z" fill="white"/>
<path d="M136.089 62.1V44.275H138.564V45.5C139.631 44.55 140.931 44.075 142.464 44.075C143.664 44.075 144.748 44.3667 145.714 44.95C146.698 45.5333 147.473 46.3167 148.039 47.3C148.606 48.2833 148.889 49.3917 148.889 50.625C148.889 51.8583 148.598 52.975 148.014 53.975C147.448 54.9583 146.673 55.7417 145.689 56.325C144.723 56.9083 143.631 57.2 142.414 57.2C141.714 57.2 141.039 57.0917 140.389 56.875C139.739 56.6417 139.139 56.3167 138.589 55.9V62.1H136.089ZM142.139 55.025C142.956 55.025 143.681 54.8333 144.314 54.45C144.964 54.0667 145.481 53.55 145.864 52.9C146.248 52.2333 146.439 51.4833 146.439 50.65C146.439 49.8167 146.248 49.0667 145.864 48.4C145.481 47.7333 144.964 47.2083 144.314 46.825C143.681 46.4417 142.956 46.25 142.139 46.25C141.423 46.25 140.756 46.3833 140.139 46.65C139.523 46.9167 139.006 47.2917 138.589 47.775V53.525C139.006 53.9917 139.523 54.3583 140.139 54.625C140.773 54.8917 141.439 55.025 142.139 55.025Z" fill="white"/>
<path d="M155.422 57.225C154.505 57.225 153.697 57.0667 152.997 56.75C152.297 56.4167 151.747 55.9583 151.347 55.375C150.947 54.7917 150.747 54.1167 150.747 53.35C150.747 52.15 151.205 51.2083 152.122 50.525C153.039 49.825 154.297 49.475 155.897 49.475C157.147 49.475 158.305 49.7167 159.372 50.2V48.85C159.372 47.0333 158.339 46.125 156.272 46.125C155.689 46.125 155.08 46.2167 154.447 46.4C153.814 46.5667 153.105 46.8333 152.322 47.2L151.397 45.325C152.364 44.875 153.264 44.55 154.097 44.35C154.93 44.1333 155.772 44.025 156.622 44.025C158.272 44.025 159.547 44.4167 160.447 45.2C161.364 45.9833 161.822 47.1 161.822 48.55V57H159.372V55.9C158.805 56.35 158.197 56.6833 157.547 56.9C156.897 57.1167 156.189 57.225 155.422 57.225ZM153.147 53.3C153.147 53.9167 153.405 54.4167 153.922 54.8C154.455 55.1833 155.147 55.375 155.997 55.375C157.364 55.375 158.489 54.9667 159.372 54.15V52C158.455 51.4667 157.364 51.2 156.097 51.2C155.18 51.2 154.455 51.3917 153.922 51.775C153.405 52.1417 153.147 52.65 153.147 53.3Z" fill="white"/>
<path d="M169.078 57.25C167.978 57.25 166.944 57.0917 165.978 56.775C165.028 56.4417 164.203 55.975 163.503 55.375L164.878 53.725C165.528 54.2417 166.194 54.6417 166.878 54.925C167.578 55.1917 168.286 55.325 169.003 55.325C169.903 55.325 170.636 55.15 171.203 54.8C171.769 54.45 172.053 53.9917 172.053 53.425C172.053 52.525 171.369 51.975 170.003 51.775L167.703 51.45C166.436 51.2667 165.486 50.875 164.853 50.275C164.219 49.675 163.903 48.875 163.903 47.875C163.903 47.1083 164.111 46.4417 164.528 45.875C164.944 45.2917 165.528 44.8417 166.278 44.525C167.028 44.1917 167.903 44.025 168.903 44.025C169.819 44.025 170.703 44.1583 171.553 44.425C172.403 44.6917 173.219 45.1083 174.003 45.675L172.728 47.325C171.344 46.425 170.003 45.975 168.703 45.975C167.936 45.975 167.319 46.1417 166.853 46.475C166.386 46.7917 166.153 47.2083 166.153 47.725C166.153 48.1917 166.311 48.5583 166.628 48.825C166.961 49.075 167.503 49.25 168.253 49.35L170.553 49.675C171.819 49.8583 172.778 50.25 173.428 50.85C174.078 51.4333 174.403 52.225 174.403 53.225C174.403 53.9917 174.169 54.6833 173.703 55.3C173.236 55.9 172.603 56.375 171.803 56.725C171.003 57.075 170.094 57.25 169.078 57.25Z" fill="white"/>
<path d="M180.699 57.25C179.599 57.25 178.565 57.0917 177.599 56.775C176.649 56.4417 175.824 55.975 175.124 55.375L176.499 53.725C177.149 54.2417 177.815 54.6417 178.499 54.925C179.199 55.1917 179.907 55.325 180.624 55.325C181.524 55.325 182.257 55.15 182.824 54.8C183.39 54.45 183.674 53.9917 183.674 53.425C183.674 52.525 182.99 51.975 181.624 51.775L179.324 51.45C178.057 51.2667 177.107 50.875 176.474 50.275C175.84 49.675 175.524 48.875 175.524 47.875C175.524 47.1083 175.732 46.4417 176.149 45.875C176.565 45.2917 177.149 44.8417 177.899 44.525C178.649 44.1917 179.524 44.025 180.524 44.025C181.44 44.025 182.324 44.1583 183.174 44.425C184.024 44.6917 184.84 45.1083 185.624 45.675L184.349 47.325C182.965 46.425 181.624 45.975 180.324 45.975C179.557 45.975 178.94 46.1417 178.474 46.475C178.007 46.7917 177.774 47.2083 177.774 47.725C177.774 48.1917 177.932 48.5583 178.249 48.825C178.582 49.075 179.124 49.25 179.874 49.35L182.174 49.675C183.44 49.8583 184.399 50.25 185.049 50.85C185.699 51.4333 186.024 52.225 186.024 53.225C186.024 53.9917 185.79 54.6833 185.324 55.3C184.857 55.9 184.224 56.375 183.424 56.725C182.624 57.075 181.715 57.25 180.699 57.25Z" fill="white"/>
<g clip-path="url(#clip0_327_252)">
<path d="M32 56.8889V53.0667" stroke="#EE0000" stroke-width="2" stroke-linecap="round" stroke-linejoin="round"/>
<path d="M7.11133 32H10.9336" stroke="#EE0000" stroke-width="2" stroke-linecap="round" stroke-linejoin="round"/>
<path d="M32.0002 56.8889C45.746 56.8889 56.8891 45.7457 56.8891 32C56.8891 18.2542 45.746 7.11108 32.0002 7.11108C18.2545 7.11108 7.11133 18.2542 7.11133 32C7.11133 45.7457 18.2545 56.8889 32.0002 56.8889Z" stroke="#EE0000" stroke-width="2" stroke-linecap="round" stroke-linejoin="round"/>
<path d="M32 7.11108V10.9333" stroke="#EE0000" stroke-width="2" stroke-linecap="round" stroke-linejoin="round"/>
<path d="M56.8891 32H53.0669" stroke="#EE0000" stroke-width="2" stroke-linecap="round" stroke-linejoin="round"/>
<path d="M35.0223 35.0222L46.2223 17.7778L28.9778 28.9778L17.7778 46.2222L35.0223 35.0222Z" stroke="#EE0000" stroke-width="2" stroke-linecap="round" stroke-linejoin="round"/>
</g>
<defs>
<clipPath id="clip0_327_252">
<rect width="64" height="64" fill="white"/>
</clipPath>
</defs>
</svg>
